{
  "accessors": [
    {
      "bufferView": 2,
      "componentType": 5126,
      "count": 65532,
      "max": [
        28.654743194580078,
        -0.5854268074035645,
        -0.01737850345671177
      ],
      "min": [
        10.105731010437012,
        -11.070365905761719,
        -0.04958031326532364
      ],
      "type": "VEC3"
    },
    {
      "bufferView": 2,
      "byteOffset": 786384,
      "componentType": 5126,
      "count": 65532,
      "max": [
        0.9922648072242737,
        0.9238609671592712,
        1.0
      ],
      "min": [
        -0.8210257291793823,
        -0.9365628957748413,
        -0.4108428955078125
      ],
      "type": "VEC3"
    },
    {
      "bufferView": 1,
      "componentType": 5126,
      "count": 65532,
      "max": [
        0.4311349093914032,
        0.9993955492973328
      ],
      "min": [
        6.567117816302925e-05,
        0.26337099075317383
      ],
      "type": "VEC2"
    },
    {
      "bufferView": 0,
      "componentType": 5125,
      "count": 359406,
      "type": "SCALAR"
    },
    {
      "bufferView": 2,
      "byteOffset": 1572768,
      "componentType": 5126,
      "count": 57626,
      "max": [
        28.65484619140625,
        -0.5840015411376953,
        -0.01755865290760994
      ],
      "min": [
        3.162036418914795,
        -11.026211738586426,
        -0.04958032816648483
      ],
      "type": "VEC3"
    },
    {
      "bufferView": 2,
      "byteOffset": 2264280,
      "componentType": 5126,
      "count": 57626,
      "max": [
        0.9922637343406677,
        0.7959476709365845,
        1.0
      ],
      "min": [
        -0.8210257291793823,
        -0.9711980819702148,
        0.07996223866939545
      ],
      "type": "VEC3"
    },
    {
      "bufferView": 1,
      "byteOffset": 524256,
      "componentType": 5126,
      "count": 57626,
      "max": [
        0.4290239214897156,
        0.9999343752861023
      ],
      "min": [
        6.5675973019097e-05,
        6.564561044797301e-05
      ],
      "type": "VEC2"
    },
    {
      "bufferView": 0,
      "byteOffset": 1437624,
      "componentType": 5125,
      "count": 278403,
      "type": "SCALAR"
    },
    {
      "bufferView": 2,
      "byteOffset": 2955792,
      "componentType": 5126,
      "count": 211,
      "max": [
        33.10782241821289,
        6.904045104980469,
        22.621604919433594
      ],
      "min": [
        0.9867193698883057,
        -11.025976181030273,
        -0.0003425938484724611
      ],
      "type": "VEC3"
    },
    {
      "bufferView": 2,
      "byteOffset": 2958324,
      "componentType": 5126,
      "count": 211,
      "max": [
        1.0,
        1.0,
        0.7685357332229614
      ],
      "min": [
        -0.9999982118606567,
        -0.9367247223854065,
        -0.9982758164405823
      ],
      "type": "VEC3"
    },
    {
      "bufferView": 1,
      "byteOffset": 985264,
      "componentType": 5126,
      "count": 211,
      "max": [
        0.9894446134567261,
        0.9998244047164917
      ],
      "min": [
        0.025497471913695335,
        0.00884164310991764
      ],
      "type": "VEC2"
    },
    {
      "bufferView": 1,
      "byteOffset": 986952,
      "componentType": 5126,
      "count": 211,
      "max": [
        0.9894446134567261,
        0.9998244047164917
      ],
      "min": [
        0.025497471913695335,
        0.00884164310991764
      ],
      "type": "VEC2"
    },
    {
      "bufferView": 0,
      "byteOffset": 2551236,
      "componentType": 5125,
      "count": 519,
      "type": "SCALAR"
    },
    {
      "bufferView": 2,
      "byteOffset": 2960856,
      "componentType": 5126,
      "count": 439,
      "max": [
        33.10493087768555,
        6.906973361968994,
        2.402928590774536
      ],
      "min": [
        -2.6319079399108887,
        -11.029114723205566,
        -0.8363513350486755
      ],
      "type": "VEC3"
    },
    {
      "bufferView": 2,
      "byteOffset": 2966124,
      "componentType": 5126,
      "count": 439,
      "max": [
        1.0,
        1.0,
        1.0
      ],
      "min": [
        -0.9999855756759644,
        -1.0,
        -1.0
      ],
      "type": "VEC3"
    },
    {
      "bufferView": 1,
      "byteOffset": 988640,
      "componentType": 5126,
      "count": 439,
      "max": [
        0.9997636079788208,
        0.9646172523498535
      ],
      "min": [
        0.0005863547557964921,
        0.0012064198963344097
      ],
      "type": "VEC2"
    },
    {
      "bufferView": 1,
      "byteOffset": 992152,
      "componentType": 5126,
      "count": 439,
      "max": [
        0.9997636079788208,
        0.9646172523498535
      ],
      "min": [
        0.0005863547557964921,
        0.0012064198963344097
      ],
      "type": "VEC2"
    },
    {
      "bufferView": 0,
      "byteOffset": 2553312,
      "componentType": 5125,
      "count": 990,
      "type": "SCALAR"
    },
    {
      "bufferView": 2,
      "byteOffset": 2971392,
      "componentType": 5126,
      "count": 131,
      "max": [
        33.07331848144531,
        6.906973361968994,
        17.615036010742188
      ],
      "min": [
        0.9999997019767761,
        2.7568886280059814,
        0.0029289312660694122
      ],
      "type": "VEC3"
    },
    {
      "bufferView": 2,
      "byteOffset": 2972964,
      "componentType": 5126,
      "count": 131,
      "max": [
        0.763237714767456,
        -0.262464702129364,
        0.7071436643600464
      ],
      "min": [
        -0.709666907787323,
        -1.0,
        -0.9021469354629517
      ],
      "type": "VEC3"
    },
    {
      "bufferView": 1,
      "byteOffset": 995664,
      "componentType": 5126,
      "count": 131,
      "max": [
        0.6109917759895325,
        0.9999219179153442
      ],
      "min": [
        7.97885877545923e-05,
        7.848912355257198e-05
      ],
      "type": "VEC2"
    },
    {
      "bufferView": 1,
      "byteOffset": 996712,
      "componentType": 5126,
      "count": 131,
      "max": [
        0.6109917759895325,
        0.9999219179153442
      ],
      "min": [
        7.97885877545923e-05,
        7.848912355257198e-05
      ],
      "type": "VEC2"
    },
    {
      "bufferView": 0,
      "byteOffset": 2557272,
      "componentType": 5125,
      "count": 345,
      "type": "SCALAR"
    },
    {
      "bufferView": 2,
      "byteOffset": 2974536,
      "componentType": 5126,
      "count": 102,
      "max": [
        33.10497283935547,
        -1.2480882406234741,
        22.621685028076172
      ],
      "min": [
        0.9897189736366272,
        -11.029114723205566,
        -0.0019977549090981483
      ],
      "type": "VEC3"
    },
    {
      "bufferView": 2,
      "byteOffset": 2975760,
      "componentType": 5126,
      "count": 102,
      "max": [
        0.7374686598777771,
        0.9999664425849915,
        0.4361749291419983
      ],
      "min": [
        -0.7848215103149414,
        -0.7556768655776978,
        -0.9372454285621643
      ],
      "type": "VEC3"
    },
    {
      "bufferView": 1,
      "byteOffset": 997760,
      "componentType": 5126,
      "count": 102,
      "max": [
        0.7925682663917542,
        0.9998988509178162
      ],
      "min": [
        0.0001048134799930267,
        8.896338840713724e-05
      ],
      "type": "VEC2"
    },
    {
      "bufferView": 1,
      "byteOffset": 998576,
      "componentType": 5126,
      "count": 102,
      "max": [
        0.7925682663917542,
        0.9998988509178162
      ],
      "min": [
        0.0001048134799930267,
        8.896338840713724e-05
      ],
      "type": "VEC2"
    },
    {
      "bufferView": 0,
      "byteOffset": 2558652,
      "componentType": 5125,
      "count": 255,
      "type": "SCALAR"
    }
  ],
  "asset": {
    "extras": {
      "author": "carlcapu9 (https://sketchfab.com/carlcapu9)",
      "license": "CC-BY-4.0 (http://creativecommons.org/licenses/by/4.0/)",
      "source": "https://sketchfab.com/3d-models/vr-art-gallery-1c78bd1896f4449e8e2e8370aa06499b",
      "title": "VR Art Gallery"
    },
    "generator": "Sketchfab-16.8.0",
    "version": "2.0"
  },
  "bufferViews": [
    {
      "buffer": 0,
      "byteLength": 2559672,
      "name": "floatBufferViews",
      "target": 34963
    },
    {
      "buffer": 0,
      "byteLength": 999392,
      "byteOffset": 2559672,
      "byteStride": 8,
      "name": "floatBufferViews",
      "target": 34962
    },
    {
      "buffer": 0,
      "byteLength": 2976984,
      "byteOffset": 3559064,
      "byteStride": 12,
      "name": "floatBufferViews",
      "target": 34962
    }
  ],
  "buffers": [
    {
      "byteLength": 6536048,
      "uri": "tf.bin"
    }
  ],
  "extensionsUsed": [
    "KHR_materials_unlit"
  ],
  "images": [
    {
      "uri": "textures/Water_baseColor.png"
    },
    {
      "uri": "textures/Concrete_3_baseColor.png"
    },
    {
      "uri": "textures/Concrete_2_baseColor.png"
    },
    {
      "uri": "textures/Concrete_baseColor.png"
    },
    {
      "uri": "textures/Concrete_4_baseColor.png"
    }
  ],
  "materials": [
    {
      "alphaMode": "BLEND",
      "doubleSided": true,
      "extensions": {
        "KHR_materials_unlit": {}
      },
      "name": "Water",
      "pbrMetallicRoughness": {
        "baseColorFactor": [
          1.0,
          1.0,
          1.0,
          0.7969548097670393
        ],
        "baseColorTexture": {
          "index": 0
        },
        "metallicFactor": 0.0
      }
    },
    {
      "extensions": {
        "KHR_materials_unlit": {}
      },
      "name": "Concrete_3",
      "pbrMetallicRoughness": {
        "baseColorTexture": {
          "index": 1
        },
        "metallicFactor": 0.0
      }
    },
    {
      "extensions": {
        "KHR_materials_unlit": {}
      },
      "name": "Concrete_2",
      "pbrMetallicRoughness": {
        "baseColorTexture": {
          "index": 2
        },
        "metallicFactor": 0.0
      }
    },
    {
      "extensions": {
        "KHR_materials_unlit": {}
      },
      "name": "Concrete",
      "pbrMetallicRoughness": {
        "baseColorTexture": {
          "index": 3
        },
        "metallicFactor": 0.0
      }
    },
    {
      "extensions": {
        "KHR_materials_unlit": {}
      },
      "name": "Concrete_4",
      "pbrMetallicRoughness": {
        "baseColorTexture": {
          "index": 4
        },
        "metallicFactor": 0.0
      }
    }
  ],
  "meshes": [
    {
      "name": "Cube_Water_0",
      "primitives": [
        {
          "attributes": {
            "NORMAL": 1,
            "POSITION": 0,
            "TEXCOORD_0": 2
          },
          "indices": 3,
          "material": 0,
          "mode": 4
        }
      ]
    },
    {
      "name": "Cube_Water_0",
      "primitives": [
        {
          "attributes": {
            "NORMAL": 5,
            "POSITION": 4,
            "TEXCOORD_0": 6
          },
          "indices": 7,
          "material": 0,
          "mode": 4
        }
      ]
    },
    {
      "name": "Cube.003_Concrete_3_0",
      "primitives": [
        {
          "attributes": {
            "NORMAL": 9,
            "POSITION": 8,
            "TEXCOORD_0": 10,
            "TEXCOORD_1": 11
          },
          "indices": 12,
          "material": 1,
          "mode": 4
        }
      ]
    },
    {
      "name": "Cube.003_Concrete_2_0",
      "primitives": [
        {
          "attributes": {
            "NORMAL": 14,
            "POSITION": 13,
            "TEXCOORD_0": 15,
            "TEXCOORD_1": 16
          },
          "indices": 17,
          "material": 2,
          "mode": 4
        }
      ]
    },
    {
      "name": "Cube.003_Concrete_0",
      "primitives": [
        {
          "attributes": {
            "NORMAL": 19,
            "POSITION": 18,
            "TEXCOORD_0": 20,
            "TEXCOORD_1": 21
          },
          "indices": 22,
          "material": 3,
          "mode": 4
        }
      ]
    },
    {
      "name": "Cube.003_Concrete_4_0",
      "primitives": [
        {
          "attributes": {
            "NORMAL": 24,
            "POSITION": 23,
            "TEXCOORD_0": 25,
            "TEXCOORD_1": 26
          },
          "indices": 27,
          "material": 4,
          "mode": 4
        }
      ]
    }
  ],
  "nodes": [
    {
      "children": [
        1
      ],
      "matrix": [
        1.0,
        0.0,
        0.0,
        0.0,
        0.0,
        2.220446049250313e-16,
        -1.0,
        0.0,
        0.0,
        1.0,
        2.220446049250313e-16,
        0.0,
        0.0,
        0.0,
        0.0,
        1.0
      ],
      "name": "Sketchfab_model"
    },
    {
      "children": [
        2
      ],
      "matrix": [
        0.009999999776482582,
        0.0,
        0.0,
        0.0,
        0.0,
        0.0,
        0.009999999776482582,
        0.0,
        0.0,
        -0.009999999776482582,
        0.0,
        0.0,
        0.0,
        0.0,
        0.0,
        1.0
      ],
      "name": "39e7725e86ca40cc891b585c2b9c33c5.fbx"
    },
    {
      "children": [
        3,
        6
      ],
      "name": "RootNode"
    },
    {
      "children": [
        4,
        5
      ],
      "matrix": [
        100.0,
        0.0,
        0.0,
        0.0,
        0.0,
        -1.629206793918314e-05,
        -99.99999999999868,
        0.0,
        0.0,
        99.99999999999868,
        -1.629206793918314e-05,
        0.0,
        0.0,
        0.0,
        0.0,
        1.0
      ],
      "name": "Cube"
    },
    {
      "mesh": 0,
      "name": "Cube_Water_0"
    },
    {
      "mesh": 1,
      "name": "Cube_Water_0"
    },
    {
      "children": [
        7,
        8,
        9,
        10
      ],
      "matrix": [
        100.0,
        0.0,
        0.0,
        0.0,
        0.0,
        -1.629206793918314e-05,
        -99.99999999999868,
        0.0,
        0.0,
        99.99999999999868,
        -1.629206793918314e-05,
        0.0,
        0.0,
        0.0,
        0.0,
        1.0
      ],
      "name": "Cube.003"
    },
    {
      "mesh": 2,
      "name": "Cube.003_Concrete_3_0"
    },
    {
      "mesh": 3,
      "name": "Cube.003_Concrete_2_0"
    },
    {
      "mesh": 4,
      "name": "Cube.003_Concrete_0"
    },
    {
      "mesh": 5,
      "name": "Cube.003_Concrete_4_0"
    }
  ],
  "samplers": [
    {
      "magFilter": 9729,
      "minFilter": 9987,
      "wrapS": 10497,
      "wrapT": 10497
    }
  ],
  "scene": 0,
  "scenes": [
    {
      "name": "Sketchfab_Scene",
      "nodes": [
        0
      ]
    }
  ],
  "textures": [
    {
      "sampler": 0,
      "source": 0
    },
    {
      "sampler": 0,
      "source": 1
    },
    {
      "sampler": 0,
      "source": 2
    },
    {
      "sampler": 0,
      "source": 3
    },
    {
      "sampler": 0,
      "source": 4
    }
  ]
}
